<svg width="700" height="464" viewBox="0 0 700 464" fill="none" xmlns="http://www.w3.org/2000/svg">
<g clip-path="url(#clip0_67_43)">
<mask id="mask0_67_43" style="mask-type:luminance" maskUnits="userSpaceOnUse" x="0" y="0" width="700" height="464">
<path d="M700 0H0V464H700V0Z" fill="white"/>
</mask>
<g mask="url(#mask0_67_43)">
<path d="M354.614 130.412C348.373 120.107 340.977 109.105 329.394 105.74C315.981 101.843 302.201 109.584 290.514 117.223C255.56 140.067 221.899 164.825 189.686 191.381L189.721 191.781C214.801 190.055 239.88 188.328 264.96 186.602C283.08 185.354 301.823 183.935 317.836 175.378C323.913 172.131 329.836 167.793 336.722 167.491C345.276 167.116 352.736 173.08 358.597 179.311C393.272 216.17 403.307 272.537 442.209 304.921C417.678 244.531 388.388 186.178 354.614 130.412Z" fill="#F2F2F2"/>
<path d="M567.757 443.045C563.922 438.212 562.355 437.08 558.573 432.202C527.775 392.439 498.828 351.334 471.731 308.886C453.326 280.056 435.833 250.673 419.253 220.737C411.36 206.505 403.683 192.161 396.222 177.705C390.433 166.497 384.773 155.221 379.242 143.879C377.66 140.639 376.123 137.384 374.594 134.122C370.99 126.451 367.454 118.743 363.656 111.177C359.329 102.552 354.062 93.5115 346.116 87.7174C342.5 84.9722 338.176 83.3113 333.65 82.9286C327.181 82.5116 321.213 85.1778 315.602 88.0897C274.554 109.456 236.124 136.245 201.366 166.728C166.517 197.279 135.369 231.794 108.555 269.57C107.735 270.74 105.795 269.622 106.623 268.446C109.883 263.843 113.208 259.29 116.598 254.787C158.745 198.831 210.424 150.712 269.272 112.629C279.172 106.224 289.259 100.119 299.532 94.3158C304.71 91.389 309.91 88.4993 315.199 85.7885C320.385 83.1297 325.891 80.739 331.814 80.6497C351.973 80.3369 362.411 103.126 369.58 118.46C371.833 123.286 374.114 128.097 376.421 132.893C385.143 151.103 394.2 169.145 403.593 187.022C409.39 198.059 415.314 209.032 421.364 219.94C440.195 253.908 460.209 287.189 481.408 319.781C509.489 362.955 537.347 401.093 569.338 441.466C570.219 442.584 568.645 444.177 567.757 443.045Z" fill="#E4E4E4"/>
<path d="M199.374 155.475C198.202 154.172 197.038 152.869 195.86 151.565C186.564 141.303 176.589 131.159 163.824 125.276C157.737 122.382 151.093 120.844 144.351 120.77C137.383 120.792 130.572 122.617 124.133 125.171C121.089 126.385 118.112 127.763 115.181 129.23C111.831 130.913 108.54 132.708 105.265 134.518C99.1177 137.914 93.0498 141.459 87.0616 145.153C75.1468 152.504 63.6052 160.415 52.4367 168.888C46.647 173.282 40.9769 177.82 35.4262 182.502C30.2635 186.852 25.2053 191.318 20.2514 195.9C19.1921 196.876 17.6103 195.297 18.6697 194.321C19.9753 193.108 21.2959 191.901 22.6164 190.709C26.3467 187.343 30.1368 184.041 33.9866 180.804C41.0068 174.891 48.2088 169.206 55.5925 163.749C67.0745 155.259 78.9518 147.345 91.2243 140.007C97.3571 136.343 103.574 132.832 109.876 129.476C111.779 128.463 113.703 127.473 115.651 126.534C120.069 124.309 124.659 122.444 129.378 120.956C136.062 118.797 143.134 118.104 150.111 118.923C156.848 119.901 163.338 122.142 169.24 125.529C181.774 132.522 191.495 143.336 200.955 153.889C201.91 154.961 200.336 156.548 199.374 155.475Z" fill="#E4E4E4"/>
<path d="M456.186 261.825L486.22 250.859L501.132 245.415C505.988 243.641 510.833 241.623 515.854 240.353C520.217 239.109 524.849 239.168 529.179 240.523C533.04 241.949 536.575 244.136 539.573 246.954C542.635 249.769 545.484 252.807 548.097 256.042C551.344 259.937 554.543 263.872 557.756 267.795C571.016 283.984 584.19 300.243 597.278 316.572C610.365 332.902 623.364 349.3 636.276 365.768C649.22 382.276 662.074 398.853 674.84 415.5C676.404 417.539 677.966 419.579 679.527 421.62C680.39 422.748 682.335 421.636 681.46 420.493C668.6 403.679 655.651 386.934 642.612 370.258C629.541 353.543 616.379 336.898 603.128 320.324C589.876 303.75 576.535 287.248 563.105 270.818C559.759 266.725 556.407 262.636 553.05 258.552C550.219 255.107 547.419 251.624 544.313 248.418C538.612 242.532 531.489 237.33 522.963 237.189C517.95 237.106 513.098 238.694 508.441 240.376C503.419 242.189 498.41 244.037 493.396 245.867L463.152 256.91L455.591 259.671C454.249 260.16 454.829 262.32 456.186 261.825Z" fill="#E4E4E4"/>
<path d="M159.871 138.189C144.608 130.359 125.062 131.892 111.037 141.675C137.789 146.282 164.249 152.447 190.28 160.138C179.47 153.814 171.015 143.906 159.871 138.189Z" fill="#F2F2F2"/>
<path d="M110.887 141.648L107.949 144.032C108.943 143.198 109.976 142.416 111.038 141.675C110.988 141.667 110.938 141.657 110.887 141.648Z" fill="#F2F2F2"/>
<path d="M538.442 261.932C535.485 258.34 532.289 254.578 527.866 253.119L523.738 253.282C555.166 308.719 597.612 357.16 648.471 395.631C611.795 351.065 575.118 306.498 538.442 261.932Z" fill="#F2F2F2"/>
<path d="M281.707 232.299C283.617 239.228 287.921 245.259 293.858 249.326C296.153 250.886 298.869 252.382 299.654 255.041C300.067 256.735 299.812 258.524 298.943 260.037C298.075 261.53 297.019 262.907 295.8 264.132L295.689 264.548C289.994 261.179 284.575 256.917 281.429 251.102C278.283 245.287 277.844 237.666 281.707 232.299Z" fill="#F2F2F2"/>
<path d="M471.329 397.215C473.239 404.144 477.544 410.175 483.48 414.242C485.775 415.802 488.491 417.298 489.276 419.957C489.689 421.651 489.434 423.44 488.565 424.953C487.697 426.446 486.641 427.823 485.422 429.048L485.311 429.464C479.616 426.095 474.197 421.833 471.051 416.018C467.905 410.203 467.466 402.582 471.329 397.215Z" fill="#F2F2F2"/>
<path d="M92.8984 385.842C94.809 392.772 99.1133 398.803 105.05 402.869C107.345 404.429 110.06 405.925 110.846 408.584C111.259 410.279 111.004 412.067 110.135 413.58C109.267 415.074 108.211 416.45 106.992 417.676L106.881 418.092C101.185 414.723 95.767 410.461 92.6208 404.646C89.4747 398.831 89.0354 391.209 92.8984 385.842Z" fill="#F2F2F2"/>
<path d="M528.377 82.8647C551.3 82.8647 569.883 64.3148 569.883 41.4323C569.883 18.5499 551.3 0 528.377 0C505.455 0 486.872 18.5499 486.872 41.4323C486.872 64.3148 505.455 82.8647 528.377 82.8647Z" fill="#F17989"/>
<path d="M603.279 9.64267C583.164 6.92849 560.199 17.7818 554.985 37.3646C553.671 33.8827 551.283 30.908 548.164 28.8701C545.046 26.8323 541.359 25.8368 537.637 26.0274C533.914 26.2181 530.349 27.5851 527.456 29.9309C524.563 32.2767 522.492 35.4799 521.542 39.0777L523.845 40.7241C566.951 50.0296 611.573 49.8282 654.594 40.134C640.602 25.4549 623.394 12.3568 603.279 9.64267Z" fill="#F0F0F0"/>
<path d="M517.013 64.8868C496.897 62.1726 473.933 73.026 468.719 92.6087C467.405 89.1269 465.016 86.1522 461.898 84.1143C458.78 82.0764 455.093 81.0809 451.371 81.2716C447.648 81.4623 444.083 82.8293 441.19 85.1751C438.297 87.5209 436.226 90.7241 435.276 94.3218L437.579 95.9683C480.685 105.274 525.307 105.072 568.328 95.3782C554.336 80.699 537.128 67.6009 517.013 64.8868Z" fill="#F0F0F0"/>
<path d="M692.578 75.3329C692.495 75.333 692.412 75.3202 692.332 75.2948C477.15 7.36348 287.498 16.2467 166.289 35.661C149.794 38.3021 133.255 41.3525 117.131 44.7283C113.015 45.5891 108.744 46.5118 104.438 47.4725C99.2956 48.6157 94.2215 49.7931 89.356 50.9704C87.2547 51.4671 85.1944 51.9677 83.1752 52.4723C80.1166 53.226 77.0131 54.0114 73.6862 54.8745C69.9688 55.8313 66.1917 56.8349 62.4575 57.8576C62.4439 57.8624 62.4299 57.8663 62.4158 57.8695C58.198 59.019 54.0029 60.2027 49.9457 61.3841C47.7498 62.0172 45.6294 62.6415 43.5984 63.258C43.3715 63.3206 43.1704 63.3809 42.9666 63.4428L42.5302 63.5753C42.2775 63.6523 42.028 63.7276 41.7784 63.799L41.7625 63.8038L41.1025 64.0093C40.3149 64.2474 39.5463 64.4798 38.7905 64.7115C18.8151 70.8584 7.834 75.2314 7.72552 75.2742C7.62632 75.3139 7.52026 75.3337 7.41339 75.3325C7.30653 75.3313 7.20095 75.309 7.10268 75.2671C7.00442 75.2251 6.91539 75.1643 6.84069 75.088C6.76599 75.0117 6.70707 74.9214 6.66731 74.8224C6.62754 74.7234 6.60771 74.6175 6.60894 74.5108C6.61017 74.4041 6.63243 74.2988 6.67446 74.2007C6.71649 74.1026 6.77745 74.0137 6.85389 73.9391C6.93032 73.8646 7.02072 73.8057 7.11992 73.766C7.2292 73.7232 18.264 69.328 38.3121 63.1581C39.0707 62.9256 39.8412 62.6932 40.6312 62.4543L41.2447 62.2639C41.2658 62.256 41.2868 62.2497 41.3083 62.2433C41.5567 62.1727 41.8046 62.0973 42.0566 62.0212L42.4937 61.8887C42.7114 61.8228 42.926 61.7578 43.1458 61.6975C45.1629 61.085 47.2904 60.4591 49.4919 59.8236C53.5507 58.6415 57.7502 57.4586 61.9711 56.3074C61.9843 56.3026 61.9978 56.2995 62.0109 56.2955C65.7582 55.2697 69.5491 54.2613 73.2785 53.3014C76.6105 52.4374 79.72 51.6504 82.7838 50.8951C84.8116 50.3913 86.8759 49.8897 88.9765 49.3901C93.8476 48.2112 98.932 47.0322 104.084 45.8866C108.396 44.9251 112.674 44 116.797 43.1384C132.946 39.7571 149.511 36.7019 166.032 34.0569C287.413 14.6148 477.338 5.71724 692.823 73.7462C693.008 73.8045 693.166 73.9272 693.269 74.0919C693.371 74.2567 693.412 74.4526 693.382 74.6443C693.352 74.836 693.255 75.0108 693.108 75.1371C692.96 75.2634 692.772 75.3329 692.578 75.3329Z" fill="#CCCCCC"/>
<path d="M214.028 341.078C213.746 340.255 213.272 339.511 212.645 338.908C212.413 338.694 212.162 338.501 211.896 338.332C209.772 336.918 206.598 336.601 204.579 338.332C204.376 338.508 204.188 338.701 204.018 338.908C203.416 339.648 202.797 340.371 202.162 341.078C201.121 342.264 200.055 343.409 198.94 344.522C198.622 344.831 198.305 345.148 197.979 345.456C197.792 345.643 197.605 345.822 197.418 346.001C196.702 346.683 195.969 347.341 195.229 347.991C194.838 348.34 194.447 348.682 194.049 349.015C193.454 349.51 192.86 350.006 192.258 350.485C192.201 350.526 192.144 350.566 192.087 350.615C192.071 350.623 192.063 350.639 192.047 350.648C192.038 350.648 192.03 350.648 192.022 350.664C192 350.673 191.981 350.686 191.965 350.704C191.786 350.826 191.664 350.908 191.574 350.981C191.607 350.964 191.64 350.94 191.672 350.924C191.526 351.038 191.371 351.151 191.225 351.265C189.8 352.313 188.344 353.32 186.854 354.263C183.17 356.617 179.299 358.668 175.282 360.396C175.013 360.502 174.736 360.616 174.46 360.721C163.941 365.023 152.53 366.702 141.215 365.612C140.059 365.523 138.903 365.401 137.748 365.246C136.413 365.051 135.087 364.816 133.768 364.548C128.749 363.548 123.838 362.068 119.103 360.128C113.18 357.421 107.547 354.122 102.289 350.282C101.475 349.705 100.653 349.128 99.8315 348.568C100.767 346.277 101.687 343.986 102.582 341.679C103.03 340.566 103.461 339.453 103.884 338.332C107.213 329.696 110.338 320.979 113.333 312.229C116.36 303.366 119.217 294.451 121.903 285.485C122.179 284.575 122.448 283.665 122.708 282.755C124.116 278.019 125.467 273.272 126.761 268.514C126.883 268.051 127.013 267.596 127.127 267.133C127.502 265.768 127.868 264.403 128.226 263.038C129.04 259.959 127.201 256.279 123.962 255.54C122.402 255.141 120.748 255.362 119.349 256.156C117.949 256.95 116.913 258.255 116.458 259.797C116.108 261.113 115.758 262.421 115.4 263.737C113.683 270.098 111.876 276.438 109.98 282.755C109.703 283.665 109.427 284.575 109.15 285.485C104.967 299.247 100.374 312.871 95.3717 326.357C94.7695 327.99 94.1591 329.617 93.5406 331.239C93.2395 332.036 92.9384 332.832 92.6291 333.628C92.035 335.196 91.4247 336.764 90.8143 338.332C90.4643 339.25 90.1062 340.168 89.7482 341.078C89.5122 341.654 89.2843 342.231 89.0564 342.8C86.736 341.968 84.332 341.391 81.8866 341.078L81.496 341.029C79.6001 340.801 77.6827 340.817 75.791 341.078C72.9597 341.407 70.2356 342.354 67.8112 343.85C65.3868 345.347 63.3212 347.357 61.7606 349.738C57.8786 355.839 57.9275 364.564 63.372 369.747C68.9793 375.085 77.4675 375.044 84.0677 371.705C87.5653 369.816 90.5145 367.057 92.6291 363.695C93.4393 362.476 94.1836 361.215 94.859 359.917C95.0299 360.031 95.2008 360.145 95.3717 360.266C96.0228 360.721 96.6739 361.184 97.3168 361.639C101.063 364.348 105.011 366.768 109.125 368.878C117.973 373.269 127.498 376.144 137.3 377.384C137.52 377.408 137.732 377.441 137.951 377.465C139.034 377.603 140.124 377.709 141.215 377.798C156.858 378.975 172.521 375.779 186.447 368.569C187.627 367.96 188.797 367.321 189.955 366.652C191.754 365.612 193.511 364.507 195.229 363.337C196.164 362.704 197.076 362.062 197.979 361.387C201.927 358.485 205.606 355.236 208.974 351.679C210.252 350.339 211.475 348.955 212.645 347.528C213.75 346.36 214.387 344.828 214.435 343.222C214.429 342.489 214.291 341.762 214.028 341.078ZM79.2661 360.429C79.437 360.307 79.6079 360.177 79.7706 360.047C79.7218 360.169 79.4858 360.307 79.2661 360.429ZM81.8785 357.805C81.6913 358.016 81.5204 358.227 81.3332 358.438C80.7637 359.075 80.152 359.672 79.5021 360.226C79.4125 360.307 79.3149 360.388 79.2172 360.461L79.2141 360.462L79.2114 360.464L79.2097 360.466L79.2091 360.469C79.0915 360.522 78.9774 360.582 78.8673 360.648C78.5173 360.859 78.1592 361.054 77.793 361.233C77.076 361.497 76.3383 361.7 75.5876 361.842C75.0107 361.884 74.4317 361.89 73.8541 361.859H73.8378C73.4392 361.77 73.0454 361.662 72.6578 361.534C72.4625 361.436 72.2753 361.323 72.0881 361.209C72.0148 361.144 71.9497 361.079 71.909 361.038C71.8295 360.966 71.7561 360.887 71.6894 360.803L71.6888 360.799L71.687 360.797L71.6844 360.795L71.6812 360.794C71.5917 360.632 71.494 360.469 71.4045 360.307C71.3999 360.303 71.397 360.297 71.3964 360.291C71.3313 360.088 71.2743 359.876 71.2255 359.665C71.2078 359.294 71.2105 358.923 71.2336 358.552C71.3428 358.033 71.4897 357.523 71.6731 357.025C71.8379 356.672 72.0254 356.33 72.2346 356.001C72.2509 355.969 72.3323 355.839 72.4218 355.693C72.4299 355.684 72.4299 355.684 72.4299 355.676C72.552 355.538 72.6741 355.392 72.8043 355.262C73.024 355.018 73.2601 354.807 73.4961 354.588C73.9551 354.288 74.4305 354.014 74.9203 353.767C75.6972 353.492 76.4944 353.277 77.3048 353.125C78.4997 353.031 79.7007 353.041 80.8938 353.158C82.0238 353.354 83.1387 353.628 84.2305 353.978C83.5688 355.26 82.8154 356.493 81.9762 357.667C81.9436 357.715 81.911 357.764 81.8785 357.805ZM72.8287 355.132C72.757 355.247 72.6723 355.353 72.5764 355.449C72.641 355.329 72.7264 355.222 72.8287 355.132Z" fill="#333333"/>
<path d="M189.564 258.107C189.491 260.658 189.418 263.209 189.344 265.76C189.19 271.422 189.03 277.088 188.864 282.755C188.693 289.133 188.514 295.507 188.327 301.879C188.238 305.169 188.145 308.46 188.05 311.75C187.798 320.613 187.548 329.474 187.302 338.332C187.277 339.25 187.245 340.159 187.22 341.077C187.098 345.473 186.976 349.868 186.854 354.263C186.716 359.031 186.58 363.8 186.447 368.569C186.349 372.144 186.249 375.721 186.146 379.301C185.414 405.241 184.681 431.181 183.949 457.121C183.918 458.727 183.265 460.259 182.127 461.395C180.989 462.531 179.454 463.183 177.845 463.213C176.23 463.201 174.685 462.554 173.543 461.415C172.401 460.275 171.754 458.732 171.741 457.121C172.148 442.53 172.56 427.939 172.978 413.348C173.344 400.155 173.716 386.962 174.093 373.768C174.215 369.422 174.337 365.073 174.459 360.721C174.647 354.173 174.831 347.625 175.013 341.077C175.037 340.159 175.07 339.25 175.094 338.332C175.11 337.527 175.135 336.731 175.159 335.927C175.517 323.213 175.875 310.496 176.234 297.777C176.38 292.772 176.521 287.765 176.657 282.755C176.819 277.044 176.982 271.336 177.145 265.63C177.218 263.12 177.283 260.617 177.357 258.107C177.388 256.501 178.041 254.969 179.179 253.833C180.317 252.697 181.851 252.045 183.46 252.014C185.075 252.027 186.62 252.673 187.762 253.813C188.904 254.953 189.551 256.495 189.564 258.107Z" fill="#333333"/>
<path d="M524.396 259.797C517.996 283.99 510.346 307.836 501.478 331.24C499.031 337.696 496.527 344.139 493.851 350.504L494.466 349.048C493.272 352.08 491.746 354.971 489.917 357.669C489.793 357.843 489.666 358.016 489.538 358.186C490.17 357.379 490.29 357.22 489.898 357.708C489.691 357.952 489.487 358.197 489.273 358.435C488.704 359.072 488.092 359.67 487.443 360.225C487.279 360.365 487.113 360.501 486.945 360.635L487.708 360.043C487.62 360.251 486.998 360.528 486.804 360.646C486.177 361.024 485.523 361.355 484.847 361.636L486.305 361.022C485.198 361.467 484.042 361.784 482.862 361.965L484.484 361.747C483.325 361.907 482.15 361.92 480.987 361.785L482.609 362.002C481.658 361.871 480.727 361.621 479.838 361.257L481.296 361.871C480.822 361.665 480.365 361.422 479.93 361.143C479.709 361 479.031 360.487 479.918 361.163C480.84 361.867 480.036 361.224 479.847 361.037C479.689 360.881 479.546 360.712 479.391 360.553C478.673 359.819 480.202 361.818 479.714 360.959C479.453 360.528 479.215 360.084 478.999 359.629L479.615 361.084C479.335 360.392 479.136 359.669 479.022 358.93L479.24 360.55C479.124 359.632 479.123 358.702 479.238 357.784L479.02 359.404C479.169 358.378 479.441 357.375 479.829 356.414L479.214 357.869C479.485 357.223 479.805 356.599 480.173 356.002C480.342 355.694 480.54 355.402 480.765 355.132C480.805 355.145 479.733 356.361 480.302 355.747C480.451 355.586 480.59 355.417 480.741 355.258C480.982 355.003 481.24 354.77 481.494 354.528C482.344 353.72 480.304 355.313 481.285 354.674C481.996 354.207 482.745 353.8 483.523 353.456L482.065 354.07C483.368 353.536 484.734 353.17 486.13 352.981L484.507 353.199C486.256 352.998 488.022 353.019 489.765 353.261L488.143 353.044C490.35 353.378 492.507 353.983 494.565 354.847L493.107 354.233C497.493 356.113 501.378 358.904 505.256 361.64C509.001 364.348 512.948 366.767 517.061 368.876C525.91 373.268 535.435 376.144 545.238 377.385C559.297 379.104 573.564 377.271 586.729 372.054C599.894 366.838 611.536 358.404 620.587 347.528C621.691 346.358 622.327 344.825 622.375 343.219C622.363 341.605 621.722 340.06 620.587 338.911C618.348 336.859 614.118 336.279 611.955 338.911C609.905 341.409 607.702 343.776 605.357 346C604.263 347.037 603.139 348.042 601.986 349.014C601.328 349.57 600.66 350.115 599.984 350.648C599.663 350.901 598.666 351.573 600.198 350.488C599.847 350.737 599.51 351.008 599.164 351.264C594.038 355.035 588.484 358.189 582.617 360.659L584.075 360.045C577.779 362.681 571.167 364.489 564.404 365.425L566.026 365.207C559.069 366.12 552.022 366.11 545.067 365.176L546.69 365.394C539.737 364.44 532.937 362.592 526.46 359.894L527.918 360.508C521.668 357.747 515.737 354.317 510.229 350.279C507.362 348.16 504.339 346.26 501.185 344.597C497.51 342.723 493.532 341.516 489.435 341.031C481.753 340.129 473.926 343.116 469.702 349.741C465.816 355.838 465.866 364.562 471.309 369.746C476.914 375.086 485.403 375.04 492.009 371.7C498.371 368.484 502.192 361.801 504.88 355.5C510.927 341.319 516.282 326.811 521.27 312.229C526.205 297.802 530.681 283.23 534.697 268.511C535.194 266.688 535.685 264.863 536.167 263.037C536.982 259.959 535.141 256.277 531.904 255.541C530.344 255.141 528.689 255.36 527.289 256.154C525.888 256.948 524.851 258.254 524.396 259.797Z" fill="#333333"/>
<path d="M585.298 258.107L583.101 335.929L580.915 413.346L579.679 457.121C579.693 458.732 580.34 460.274 581.482 461.414C582.624 462.554 584.168 463.2 585.783 463.214C587.392 463.183 588.927 462.531 590.065 461.395C591.203 460.259 591.856 458.727 591.887 457.121L594.084 379.299L596.269 301.882L597.505 258.107C597.491 256.495 596.844 254.953 595.702 253.813C594.56 252.674 593.016 252.027 591.401 252.014C589.792 252.045 588.258 252.697 587.12 253.833C585.982 254.969 585.329 256.5 585.298 258.107Z" fill="#333333"/>
<path opacity="0.2" d="M374.029 435.392H375.924V349.244H420.138V347.357H375.924V311.007H410.069C409.568 310.371 409.053 309.744 408.523 309.124H375.924V285.116C375.297 284.849 374.665 284.592 374.029 284.349V309.124H336.876V278.363C336.239 278.392 335.612 278.436 334.98 278.489V309.124H305.341V286.173C304.704 286.455 304.077 286.751 303.455 287.061V309.124H278.539V311.007H303.455V347.357H278.539V349.244H303.455V435.392H305.341V349.244C309.233 349.243 313.088 350.008 316.684 351.495C320.281 352.981 323.548 355.161 326.301 357.908C329.053 360.656 331.237 363.918 332.726 367.508C334.215 371.098 334.981 374.946 334.98 378.832V435.392H336.876V349.244H374.029V435.392ZM305.341 347.357V311.007H334.98V347.357H305.341ZM336.876 347.357V311.007H337.619C342.401 311.007 347.136 311.947 351.553 313.774C355.971 315.601 359.985 318.279 363.366 321.654C366.747 325.03 369.428 329.037 371.258 333.447C373.088 337.857 374.029 342.584 374.029 347.357H336.876Z" fill="black"/>
<path d="M362.454 409.562C360.068 420.187 354.352 429.777 346.137 436.94C345.534 437.459 344.932 437.963 344.306 438.459C342.784 438.597 341.273 438.738 339.773 438.881C338.527 438.995 337.299 439.117 336.078 439.231L335.858 439.255L335.703 437.923L335.085 432.528C332.686 428.618 331.198 424.219 330.733 419.657C330.268 415.095 330.838 410.487 332.399 406.174C334.548 400.39 338.438 395.28 342.263 390.21C347.545 383.207 352.68 376.286 352.867 367.748C355.466 371.068 357.627 374.707 359.296 378.577C357.721 379.317 356.305 380.358 355.13 381.639C354.796 382.005 354.462 382.517 354.69 382.956C354.885 383.329 355.374 383.419 355.797 383.467C356.814 383.573 357.84 383.679 358.857 383.784C359.671 383.874 360.485 383.955 361.298 384.044C362.283 387.27 362.951 390.584 363.292 393.939C363.841 399.158 363.558 404.431 362.454 409.562Z" fill="#333333"/>
<path d="M389.473 388.27C384.672 391.755 381.864 396.768 379.683 402.292C377.447 403.006 375.437 404.288 373.848 406.013C373.514 406.378 373.18 406.89 373.408 407.329C373.604 407.703 374.092 407.792 374.515 407.841C375.532 407.946 376.558 408.052 377.575 408.157C375.394 414.689 373.392 421.448 369.534 426.964C366.969 430.606 363.625 433.634 359.744 435.828C358.686 436.43 357.594 436.969 356.472 437.444C352.338 437.761 348.283 438.1 344.306 438.46C342.784 438.598 341.273 438.739 339.773 438.882C338.527 438.996 337.299 439.118 336.078 439.232C336.07 438.785 336.07 438.338 336.078 437.891C336.335 425.988 340.722 414.544 348.489 405.509C348.855 405.087 349.229 404.672 349.612 404.258C353.547 400.062 358.174 396.572 363.292 393.94C371.357 389.755 380.396 387.797 389.473 388.27Z" fill="#494F58"/>
<path d="M341.18 434.714L340.244 437.476L339.772 438.881C338.527 438.995 337.298 439.117 336.078 439.23L335.858 439.255C334.507 439.393 333.164 439.531 331.821 439.669C331.471 439.263 331.121 438.849 330.78 438.426C322.285 428.158 318.207 414.95 319.438 401.69C320.669 388.429 327.107 376.194 337.347 367.658C336.273 373.272 337.526 378.65 339.585 383.987C339.366 384.077 339.154 384.166 338.95 384.264C337.375 385.004 335.96 386.044 334.784 387.326C334.45 387.692 334.116 388.204 334.344 388.642C334.539 389.016 335.028 389.105 335.451 389.154C336.468 389.26 337.494 389.365 338.511 389.471C339.325 389.56 340.139 389.642 340.952 389.731C341.335 389.772 341.717 389.812 342.1 389.853C342.157 389.975 342.206 390.088 342.263 390.21C344.582 395.231 347.081 400.276 348.489 405.508C348.842 406.82 349.119 408.152 349.319 409.497C349.945 414.04 349.539 418.666 348.13 423.032C346.721 427.397 344.346 431.39 341.18 434.714Z" fill="#494F58"/>
<path d="M423.099 316.884C416.093 303.242 405.239 291.764 392.473 283.329C379.666 274.905 364.97 269.776 349.696 268.397C347.694 268.215 345.686 268.109 343.674 268.078C341.297 268.042 305.533 278.34 293.553 286.748C281.579 295.054 271.729 306.054 264.798 318.86C257.879 331.736 254.476 346.203 254.93 360.807C255.523 375.499 259.625 389.837 266.895 402.626C274.066 415.373 284.248 426.179 296.555 434.103C309.037 442.054 321.576 463.134 336.314 463.879C351.163 464.628 368.097 444.743 381.64 438.705C395.183 432.617 406.891 423.092 415.598 411.079C424.058 399.307 429.531 385.662 431.548 371.314C433.642 356.623 432.666 341.472 427.64 327.431C426.351 323.823 424.834 320.3 423.099 316.884C421.651 314.036 417.406 312.987 414.748 314.698C413.379 315.539 412.387 316.875 411.98 318.428C411.572 319.98 411.779 321.63 412.558 323.034C413.409 324.706 414.2 326.406 414.931 328.134L414.316 326.679C417.083 333.32 418.964 340.295 419.912 347.426L419.694 345.806C420.702 353.542 420.684 361.377 419.64 369.108L419.858 367.488C418.803 375.218 416.736 382.777 413.71 389.97L414.325 388.515C412.769 392.185 410.954 395.741 408.896 399.156C407.852 400.881 406.745 402.566 405.575 404.21C405.061 404.932 404.531 405.641 403.997 406.348C403.3 407.27 404.946 405.143 404.227 406.048C404.104 406.202 403.982 406.357 403.859 406.51C403.489 406.972 403.114 407.429 402.734 407.881C400.197 410.903 397.428 413.724 394.452 416.317C393.711 416.963 392.958 417.594 392.192 418.211C391.81 418.518 391.433 418.839 391.035 419.124C391.051 419.114 392.321 418.15 391.569 418.709C391.332 418.885 391.098 419.064 390.861 419.239C389.282 420.406 387.662 421.515 385.999 422.563C382.171 424.97 378.155 427.066 373.991 428.829L375.449 428.215C368.264 431.234 360.713 433.297 352.99 434.35L354.612 434.132C346.893 435.174 339.069 435.188 331.346 434.173L332.968 434.391C325.949 433.45 319.083 431.597 312.545 428.879L314.003 429.494C310.216 427.897 306.565 425.998 303.085 423.814C301.362 422.731 299.685 421.581 298.052 420.364C297.819 420.19 297.588 420.014 297.356 419.839C296.611 419.278 297.892 420.253 297.902 420.26C297.469 419.95 297.052 419.618 296.653 419.265C295.864 418.624 295.088 417.968 294.324 417.297C291.267 414.61 288.413 411.702 285.784 408.597C285.126 407.821 284.482 407.032 283.852 406.233C283.579 405.886 283.082 405.184 284.181 406.662C284.036 406.468 283.887 406.277 283.74 406.084C283.39 405.619 283.044 405.151 282.702 404.68C281.507 403.029 280.371 401.338 279.294 399.606C276.86 395.685 274.737 391.582 272.942 387.332L273.557 388.787C270.62 381.812 268.612 374.482 267.583 366.985L267.801 368.605C266.873 361.694 266.86 354.692 267.762 347.778L267.544 349.398C268.468 342.703 270.273 336.158 272.911 329.934L272.295 331.389C273.955 327.492 275.913 323.729 278.151 320.132C279.272 318.332 280.459 316.576 281.714 314.864C281.999 314.475 282.287 314.088 282.578 313.704C282.842 313.356 283.567 312.491 282.33 314.02C282.451 313.87 282.568 313.716 282.687 313.564C283.376 312.694 284.081 311.837 284.803 310.993C287.536 307.8 290.496 304.808 293.66 302.04C294.46 301.34 295.272 300.655 296.097 299.985C296.472 299.681 296.85 299.379 297.229 299.081C297.381 298.962 297.535 298.845 297.686 298.725C296.061 300.016 297.235 299.076 297.604 298.8C299.304 297.529 301.05 296.32 302.841 295.176C306.823 292.634 311.012 290.431 315.363 288.589L313.905 289.203C320.22 286.556 348.2 280.308 353.289 280.99L351.667 280.773C359.147 281.815 366.457 283.831 373.412 286.77L371.954 286.156C375.479 287.65 378.904 289.367 382.209 291.298C383.86 292.264 385.479 293.283 387.065 294.354C387.816 294.862 388.558 295.38 389.293 295.91C389.661 296.175 390.026 296.443 390.389 296.713C390.591 296.864 390.791 297.016 390.992 297.167C391.838 297.8 389.827 296.25 390.714 296.95C393.681 299.277 396.499 301.788 399.152 304.467C400.454 305.792 401.712 307.158 402.925 308.566C403.547 309.289 404.157 310.022 404.753 310.766C405.05 311.135 406.06 312.473 404.822 310.834C405.125 311.235 405.43 311.633 405.729 312.036C408.301 315.511 410.585 319.189 412.558 323.034C414.018 325.876 418.244 326.935 420.909 325.22C422.279 324.379 423.271 323.043 423.679 321.49C424.087 319.937 423.879 318.287 423.099 316.884Z" fill="#333333"/>
<path d="M351.979 416.318C351.348 416.347 350.725 416.182 350.192 415.845C349.659 415.509 349.243 415.016 348.999 414.435C348.756 413.855 348.697 413.213 348.832 412.598C348.966 411.983 349.286 411.423 349.749 410.996C349.827 410.688 349.882 410.467 349.96 410.16C349.932 410.093 349.904 410.026 349.876 409.959C347.044 403.218 328.973 422.009 328.192 428.345C327.848 431.145 327.993 433.984 328.621 436.735C322.767 423.988 319.727 410.135 319.708 396.113C319.707 392.594 319.903 389.078 320.295 385.581C320.618 382.715 321.068 379.868 321.643 377.042C324.78 361.71 331.516 347.339 341.298 335.109C346.892 335.421 351.795 334.57 352.268 323.748C352.352 321.823 353.783 320.156 354.098 318.259C353.564 318.329 353.021 318.373 352.487 318.408C352.321 318.416 352.146 318.425 351.979 318.434L351.917 318.437C351.33 318.463 350.748 318.319 350.241 318.023C349.733 317.727 349.323 317.291 349.058 316.767C348.794 316.243 348.687 315.654 348.75 315.071C348.813 314.488 349.043 313.936 349.413 313.48C349.644 313.197 349.875 312.914 350.106 312.631C350.456 312.194 350.815 311.765 351.165 311.328C351.205 311.287 351.243 311.243 351.279 311.197C351.682 310.699 352.084 310.21 352.487 309.712C351.752 308.573 350.763 307.619 349.598 306.924C345.562 304.564 339.994 306.198 337.078 309.843C334.154 313.487 333.602 318.6 334.618 323.153C335.617 327.028 337.269 330.704 339.503 334.026C339.284 334.305 339.057 334.576 338.838 334.856C334.837 339.992 331.349 345.507 328.426 351.322C329.253 344.872 319.139 321.581 315.228 316.648C310.529 310.722 300.895 313.308 300.067 320.82C300.059 320.893 300.052 320.966 300.044 321.038C300.625 321.365 301.194 321.713 301.75 322.08C302.449 322.546 302.991 323.212 303.304 323.991C303.617 324.77 303.688 325.625 303.506 326.444C303.324 327.264 302.898 328.009 302.285 328.583C301.671 329.157 300.899 329.532 300.068 329.66L299.983 329.673C292.206 340.757 317.136 369.606 323.376 363.129C320.439 371.438 318.597 380.093 317.896 388.876C317.499 394.058 317.522 399.263 317.966 404.442L317.939 404.258C316.553 392.98 292.767 376.212 285.821 377.609C281.819 378.413 277.878 378.23 278.486 382.259C278.495 382.324 278.505 382.388 278.515 382.452C279.593 382.891 280.643 383.396 281.658 383.964C282.239 384.292 282.808 384.639 283.364 385.006C284.063 385.472 284.605 386.139 284.918 386.917C285.232 387.696 285.302 388.551 285.12 389.37C284.938 390.19 284.513 390.935 283.899 391.509C283.286 392.083 282.513 392.458 281.682 392.586L281.597 392.599C281.536 392.608 281.483 392.617 281.422 392.625C277.882 404.784 304.134 424.407 320.093 418.163H320.102C321.684 425.024 323.975 431.702 326.94 438.089H351.366C351.454 437.819 351.533 437.539 351.612 437.268C349.351 437.41 347.081 437.275 344.853 436.866C346.665 434.646 348.477 432.409 350.29 430.189C350.33 430.147 350.368 430.104 350.403 430.058C351.323 428.922 352.251 427.794 353.17 426.658C353.219 423.175 352.819 419.699 351.979 416.319V416.318ZM324.007 361.39L324.02 361.372L324.007 361.407V361.39ZM318.596 410.079L318.386 409.607C318.395 409.266 318.395 408.925 318.386 408.575C318.386 408.479 318.368 408.383 318.368 408.287C318.447 408.89 318.517 409.493 318.605 410.096L318.596 410.079Z" fill="#333333"/>
<path d="M77.5161 365.579C82.4602 365.579 86.4682 361.578 86.4682 356.643C86.4682 351.707 82.4602 347.707 77.5161 347.707C72.572 347.707 68.564 351.707 68.564 356.643C68.564 361.578 72.572 365.579 77.5161 365.579Z" fill="#333333"/>
<path d="M184.942 463.066C189.886 463.066 193.894 459.065 193.894 454.13C193.894 449.194 189.886 445.193 184.942 445.193C179.998 445.193 175.99 449.194 175.99 454.13C175.99 459.065 179.998 463.066 184.942 463.066Z" fill="#333333"/>
<path d="M592.67 463.066C597.614 463.066 601.622 459.065 601.622 454.13C601.622 449.194 597.614 445.193 592.67 445.193C587.726 445.193 583.718 449.194 583.718 454.13C583.718 459.065 587.726 463.066 592.67 463.066Z" fill="#333333"/>
<path d="M614.644 349.332C619.588 349.332 623.596 345.331 623.596 340.395C623.596 335.46 619.588 331.459 614.644 331.459C609.699 331.459 605.691 335.46 605.691 340.395C605.691 345.331 609.699 349.332 614.644 349.332Z" fill="#333333"/>
<path d="M588.601 266.467C593.545 266.467 597.553 262.466 597.553 257.531C597.553 252.595 593.545 248.594 588.601 248.594C583.657 248.594 579.649 252.595 579.649 257.531C579.649 262.466 583.657 266.467 588.601 266.467Z" fill="#333333"/>
<path d="M215.053 340.396C215.048 342.679 214.164 344.872 212.583 346.522C211.003 348.172 208.848 349.153 206.564 349.26C204.28 349.368 202.041 348.596 200.312 347.102C198.583 345.608 197.495 343.508 197.274 341.236C197.052 338.964 197.715 336.694 199.123 334.896C200.532 333.098 202.579 331.909 204.841 331.576C207.104 331.243 209.408 331.79 211.277 333.105C213.146 334.421 214.437 336.403 214.882 338.642C214.997 339.219 215.054 339.807 215.053 340.396Z" fill="#333333"/>
<path d="M394.096 292.465C399.04 292.465 403.048 288.464 403.048 283.528C403.048 278.593 399.04 274.592 394.096 274.592C389.152 274.592 385.144 278.593 385.144 283.528C385.144 288.464 389.152 292.465 394.096 292.465Z" fill="#333333"/>
<path d="M305.389 283.527C305.383 285.81 304.499 288.003 302.919 289.653C301.339 291.303 299.183 292.283 296.899 292.391C294.615 292.499 292.377 291.726 290.648 290.233C288.918 288.739 287.83 286.639 287.609 284.367C287.388 282.095 288.05 279.825 289.459 278.027C290.867 276.229 292.915 275.04 295.177 274.707C297.439 274.373 299.743 274.921 301.612 276.236C303.481 277.551 304.772 279.534 305.218 281.772C305.333 282.35 305.39 282.938 305.389 283.527Z" fill="#333333"/>
<path d="M189.825 257.532C189.819 259.814 188.935 262.008 187.355 263.658C185.775 265.307 183.619 266.287 181.335 266.395C179.051 266.503 176.813 265.73 175.084 264.236C173.354 262.743 172.267 260.642 172.045 258.37C171.824 256.098 172.486 253.829 173.895 252.03C175.303 250.232 177.351 249.044 179.613 248.711C181.875 248.378 184.179 248.925 186.048 250.241C187.917 251.556 189.208 253.538 189.654 255.777C189.769 256.355 189.826 256.943 189.825 257.532Z" fill="#333333"/>
<path d="M487.686 368.829C492.63 368.829 496.638 364.828 496.638 359.893C496.638 354.957 492.63 350.957 487.686 350.957C482.742 350.957 478.734 354.957 478.734 359.893C478.734 364.828 482.742 368.829 487.686 368.829Z" fill="#333333"/>
<path d="M346.894 287.589C354.085 287.589 359.915 281.769 359.915 274.591C359.915 267.412 354.085 261.592 346.894 261.592C339.702 261.592 333.873 267.412 333.873 274.591C333.873 281.769 339.702 287.589 346.894 287.589Z" fill="#333333"/>
<path d="M699.031 463.75L0.969005 464C0.841753 464 0.715743 463.975 0.598177 463.926C0.480612 463.878 0.373795 463.806 0.283814 463.717C0.193834 463.627 0.122448 463.52 0.0737508 463.403C0.0250534 463.286 0 463.16 0 463.033C0 462.906 0.0250534 462.78 0.0737508 462.663C0.122448 462.545 0.193834 462.439 0.283814 462.349C0.373795 462.259 0.480612 462.188 0.598177 462.139C0.715743 462.091 0.841753 462.066 0.969005 462.066L699.031 461.816C699.287 461.817 699.533 461.919 699.714 462.1C699.895 462.281 699.997 462.527 699.997 462.783C699.997 463.039 699.895 463.285 699.714 463.466C699.533 463.647 699.287 463.75 699.031 463.75Z" fill="#CACACA"/>
</g>
</g>
<defs>
<clipPath id="clip0_67_43">
<rect width="700" height="464" fill="white"/>
</clipPath>
</defs>
</svg>
