<svg width="700" height="418" viewBox="0 0 700 418" fill="none" xmlns="http://www.w3.org/2000/svg">
<g clip-path="url(#clip0_67_84)">
<mask id="mask0_67_84" style="mask-type:luminance" maskUnits="userSpaceOnUse" x="0" y="0" width="700" height="418">
<path d="M700 0H0V418H700V0Z" fill="white"/>
</mask>
<g mask="url(#mask0_67_84)">
<path d="M535.937 413.273C526.975 405.709 521.531 393.761 522.959 382.129C524.386 370.497 533.228 359.804 544.698 357.334C556.167 354.864 569.241 361.702 572.725 372.892C574.642 351.317 576.851 328.839 588.335 310.466C598.734 293.83 616.745 281.926 636.264 279.797C655.784 277.667 676.335 285.71 688.509 301.098C700.683 316.486 703.663 338.857 695.137 356.524C688.856 369.539 677.285 379.224 665.161 387.104C625.983 412.351 578.995 422.618 532.842 416.016L535.937 413.273Z" fill="#F2F2F2"/>
<path d="M669.206 286.156C653.1 299.259 638.325 313.914 625.093 329.908C604.386 354.853 587.63 382.821 575.408 412.838C574.513 415.028 578.073 415.981 578.958 413.815C598.955 365.032 630.879 322.035 671.81 288.756C673.648 287.262 671.029 284.674 669.206 286.156Z" fill="white"/>
<path d="M225.341 411.219C237.65 400.831 245.127 384.42 243.166 368.443C241.206 352.467 229.061 337.78 213.308 334.387C197.555 330.995 179.598 340.386 174.813 355.756C172.18 326.123 169.145 295.249 153.372 270.014C139.089 247.164 114.351 230.815 87.5412 227.89C60.7311 224.965 32.5035 236.012 15.783 257.147C-0.937431 278.283 -5.03137 309.009 6.67921 333.275C15.306 351.15 31.1996 364.453 47.852 375.276C100.979 409.804 166.884 424.205 229.592 414.987" fill="#F2F2F2"/>
<path d="M42.2947 236.622C64.4163 254.619 84.7106 274.747 102.884 296.715C121.061 318.66 137.063 342.315 150.666 367.347C158.27 381.388 165.101 395.834 171.128 410.619C172.356 413.627 167.467 414.936 166.251 411.962C155.576 385.895 142.369 360.937 126.819 337.444C111.345 314.036 93.6327 292.182 73.9333 272.19C62.7912 260.888 51.0354 250.206 38.719 240.193C36.1945 238.14 39.791 234.586 42.2947 236.622Z" fill="white"/>
<path d="M502.471 417.085H208.793V116.125C208.793 52.0933 260.949 0 325.057 0H386.207C450.315 0 502.471 52.0933 502.471 116.125V417.085Z" fill="#F2F2F2"/>
<path d="M441.322 417.086H208.793V116.126C208.729 91.5902 216.507 67.6749 230.996 47.8616C231.53 47.1345 232.063 46.4168 232.613 45.707C239.621 36.5263 247.961 28.4411 257.357 21.7181C257.888 21.3324 258.421 20.9533 258.962 20.5743C266.824 15.1396 275.33 10.6969 284.284 7.34726C284.816 7.14595 285.357 6.94426 285.899 6.7508C293.997 3.86421 302.392 1.88691 310.928 0.855412C311.458 0.783206 312.001 0.726703 312.544 0.6702C320.863 -0.218192 329.253 -0.218192 337.572 0.6702C338.114 0.726703 338.657 0.783198 339.192 0.856184C347.727 1.88776 356.119 3.86481 364.216 6.75083C364.757 6.94429 365.299 7.14598 365.832 7.34767C374.676 10.6551 383.081 15.0315 390.86 20.3792C391.4 20.7501 391.941 21.1291 392.474 21.5082C397.741 25.2633 402.689 29.4468 407.266 34.0159C410.936 37.6808 414.357 41.5874 417.504 45.7094C418.051 46.4169 418.584 47.1346 419.117 47.8605C433.607 67.6739 441.386 91.5897 441.322 116.126V417.086Z" fill="#494F58"/>
<path d="M422.414 282.476C429.523 282.476 435.287 276.72 435.287 269.618C435.287 262.517 429.523 256.76 422.414 256.76C415.304 256.76 409.54 262.517 409.54 269.618C409.54 276.72 415.304 282.476 422.414 282.476Z" fill="white"/>
<path d="M478.413 408.071H468.549L463.855 370.068L478.415 370.069L478.413 408.071Z" fill="#F1C27D"/>
<path d="M461.502 405.256H480.526V417.22H449.524C449.524 415.649 449.834 414.093 450.436 412.642C451.038 411.19 451.92 409.871 453.033 408.76C454.145 407.649 455.465 406.768 456.919 406.167C458.372 405.566 459.929 405.256 461.502 405.256Z" fill="#333333"/>
<path d="M527.494 408.071H517.629L512.936 370.068L527.495 370.069L527.494 408.071Z" fill="#F1C27D"/>
<path d="M510.583 405.256H529.607V417.22H498.605C498.605 415.649 498.915 414.093 499.517 412.642C500.119 411.19 501.001 409.871 502.113 408.76C503.226 407.649 504.546 406.768 505.999 406.167C507.452 405.566 509.01 405.256 510.583 405.256Z" fill="#333333"/>
<path d="M428.929 272.166C428.22 271.121 427.748 269.934 427.547 268.688C427.347 267.442 427.422 266.167 427.768 264.953C428.114 263.739 428.722 262.616 429.55 261.662C430.377 260.709 431.404 259.948 432.558 259.434L466.091 167.123L482.591 176.117L444.304 264.332C445.041 266.326 445.02 268.52 444.245 270.499C443.47 272.478 441.995 274.104 440.1 275.07C438.205 276.035 436.021 276.273 433.962 275.738C431.903 275.202 430.113 273.931 428.929 272.166Z" fill="#F1C27D"/>
<path d="M522.454 289.511C521.358 288.883 520.413 288.023 519.686 286.991C518.958 285.959 518.466 284.78 518.244 283.538C518.023 282.295 518.076 281.019 518.401 279.8C518.726 278.58 519.315 277.447 520.127 276.479L509.739 178.83L528.516 179.687L532.833 275.737C534.371 277.206 535.315 279.188 535.487 281.306C535.66 283.423 535.049 285.531 533.769 287.229C532.49 288.927 530.631 290.097 528.546 290.517C526.461 290.938 524.293 290.58 522.454 289.511Z" fill="#F1C27D"/>
<path d="M492.499 150.025C503.413 150.025 512.261 141.188 512.261 130.287C512.261 119.386 503.413 110.549 492.499 110.549C481.585 110.549 472.737 119.386 472.737 130.287C472.737 141.188 481.585 150.025 492.499 150.025Z" fill="#F1C27D"/>
<path d="M522.328 267.303H462.75L462.822 266.84C462.929 266.148 473.44 197.375 465.688 174.876C464.91 172.665 464.978 170.244 465.88 168.081C466.782 165.917 468.453 164.163 470.571 163.156C481.652 157.944 502.922 151.526 520.875 167.101C523.517 169.431 525.58 172.342 526.901 175.605C528.222 178.869 528.764 182.394 528.486 185.903L522.328 267.303Z" fill="#F17989"/>
<path d="M474.193 207.538L447.371 202.103L459.943 172.345C460.696 169.462 462.562 166.996 465.133 165.486C467.704 163.976 470.769 163.547 473.656 164.291C476.544 165.036 479.018 166.894 480.536 169.458C482.053 172.022 482.491 175.082 481.753 177.968L474.193 207.538Z" fill="#F17989"/>
<path d="M508.546 217.631L506.934 180.711C505.711 173.771 509.689 167.21 515.806 166.137C521.926 165.069 527.901 169.882 529.129 176.874L535.19 211.372L508.546 217.631Z" fill="#F17989"/>
<path d="M520.346 262.883C529.933 299.349 530.979 345.713 528.392 396.286L515.519 394.678L492.185 298.243L479.312 396.286L464.829 395.482C460.502 342.418 456.29 296.864 463.22 266.901L520.346 262.883Z" fill="#333333"/>
<path d="M505.52 145.54C501.833 149.462 494.987 147.357 494.506 141.998C494.469 141.582 494.471 141.163 494.515 140.748C494.763 138.374 496.135 136.219 495.807 133.713C495.732 133.089 495.499 132.495 495.131 131.986C492.193 128.057 485.297 133.744 482.524 130.187C480.824 128.006 482.822 124.572 481.518 122.134C479.796 118.917 474.696 120.504 471.497 118.742C467.939 116.781 468.152 111.328 470.494 108.011C473.351 103.966 478.36 101.807 483.306 101.496C488.252 101.185 493.165 102.521 497.783 104.318C503.03 106.36 508.233 109.183 511.461 113.791C515.388 119.395 515.766 126.929 513.802 133.481C512.607 137.467 508.531 142.337 505.52 145.54Z" fill="#333333"/>
<path d="M675.847 417.603H81.8175C81.5639 417.602 81.321 417.501 81.1419 417.321C80.9629 417.142 80.8623 416.899 80.8623 416.646C80.8623 416.392 80.9629 416.149 81.1419 415.97C81.321 415.79 81.5639 415.689 81.8175 415.688H675.847C676.101 415.689 676.344 415.79 676.523 415.97C676.702 416.149 676.803 416.392 676.803 416.646C676.803 416.899 676.702 417.142 676.523 417.321C676.344 417.501 676.101 417.602 675.847 417.603Z" fill="#333333"/>
<path d="M377.356 329.891H272.759C271.381 329.898 270.057 329.361 269.076 328.394C268.096 327.427 267.539 326.111 267.529 324.735V91.5463C267.539 90.1704 268.096 88.8549 269.076 87.8884C270.057 86.9219 271.381 86.3833 272.759 86.3907H377.356C378.734 86.3833 380.058 86.9219 381.039 87.8884C382.019 88.8549 382.576 90.1704 382.586 91.5463V324.735C382.576 326.111 382.019 327.427 381.039 328.394C380.058 329.361 378.734 329.898 377.356 329.891Z" fill="white"/>
<path d="M382.586 161.844H267.529V163.452H382.586V161.844Z" fill="#494F58"/>
<path d="M382.989 253.547H267.931V255.155H382.989V253.547Z" fill="#494F58"/>
<path d="M305.345 86.3906H303.735V330.695H305.345V86.3906Z" fill="#494F58"/>
<path d="M345.575 86.3906H343.965V330.695H345.575V86.3906Z" fill="#494F58"/>
</g>
</g>
<defs>
<clipPath id="clip0_67_84">
<rect width="700" height="418" fill="white"/>
</clipPath>
</defs>
</svg>
